PathFileType	4	(X/Y/Z)	/Users/itak/Documents/Research/Walk-IL/dataset/trc/00485_00167.trc
DataRate	CameraRate	NumFrames	NumMarkers	Units	OrigDataRate	OrigDataStartFrame	OrigNumFrames
100.000000	100.000000	4	53	mm	100.000000	70	566
Frame#	Time	RPSI			LPSI			L3			STRN			T10			C7			CLAV			RBAK			LBAK			LSHO			LUPA			LAEL			LAOL			LWTS			LWPS			LFRA			LIFD			LHPS			RSHO			RUPA			RAEL			RAOL			RWTS			RWPS			RFRA			RIFD			RHTS			RHPS			RBHD			LFHD			RFHD			LBHD			LHIP			RHIP			RASI			LASI			LKNE			LTHI			LANK			LTIP			LTOE			LMT1			LMT5			LHEE			RKNE			RTHI			RANK			RTIP			RTOE			RMT1			RMT5			RHEE			LHTS			
		X1	Y1	Z1	X2	Y2	Z2	X3	Y3	Z3	X4	Y4	Z4	X5	Y5	Z5	X6	Y6	Z6	X7	Y7	Z7	X8	Y8	Z8	X9	Y9	Z9	X10	Y10	Z10	X11	Y11	Z11	X12	Y12	Z12	X13	Y13	Z13	X14	Y14	Z14	X15	Y15	Z15	X16	Y16	Z16	X17	Y17	Z17	X18	Y18	Z18	X19	Y19	Z19	X20	Y20	Z20	X21	Y21	Z21	X22	Y22	Z22	X23	Y23	Z23	X24	Y24	Z24	X25	Y25	Z25	X26	Y26	Z26	X27	Y27	Z27	X28	Y28	Z28	X29	Y29	Z29	X30	Y30	Z30	X31	Y31	Z31	X32	Y32	Z32	X33	Y33	Z33	X34	Y34	Z34	X35	Y35	Z35	X36	Y36	Z36	X37	Y37	Z37	X38	Y38	Z38	X39	Y39	Z39	X40	Y40	Z40	X41	Y41	Z41	X42	Y42	Z42	X43	Y43	Z43	X44	Y44	Z44	X45	Y45	Z45	X46	Y46	Z46	X47	Y47	Z47	X48	Y48	Z48	X49	Y49	Z49	X50	Y50	Z50	X51	Y51	Z51	X52	Y52	Z52	X53	Y53	Z53	

71	0.7000000000000001	-1443.814453125	966.5465698242188	-229.3130493164062	-1360.617919921875	962.6494140625	-343.0586242675781	-1401.26318359375	1052.978515625	-269.1856994628906	-1179.571655273438	1256.991088867188	-136.5435943603516	-1419.416625976562	1177.13623046875	-286.7720031738281	-1377.532104492188	1448.136962890625	-246.6476898193359	-1211.018920898438	1368.316650390625	-161.1669769287109	-1477.890014648438	1327.25537109375	-194.9929504394531	-1350.478759765625	1398.365600585938	-348.8704223632812	-1221.531127929688	1421.114135742188	-361.9096069335938	-1169.608276367188	1300.067016601562	-444.2446899414062	-1128.208129882812	1081.663330078125	-445.2499084472656	-1232.018920898438	1067.366821289062	-443.5366516113281	-1094.203002929688	883.0645141601562	-348.4176635742188	-1091.623413085938	866.1067504882812	-420.6973876953125	-1104.554565429688	994.4961547851562	-434.5024108886719	-1085.192504882812	720.271240234375	-348.0291748046875	-1082.022827148438	789.2835693359375	-413.1683654785156	-1399.369873046875	1418.641357421875	-72.3101806640625	-1449.89990234375	1357.287109375	-12.8747501373291	-1456.957153320312	1068.748291015625	45.50490188598633	-1482.570434570312	1049.195556640625	-14.3759593963623	-1333.118041992188	870.4432373046875	56.90573883056641	-1417.210327148438	851.7171020507812	78.4259033203125	-1454.680908203125	1010.681213378906	57.55654525756836	-1325.614868164062	714.248779296875	70.65357208251953	-1319.138061523438	774.140625	76.98558807373047	-1395.784423828125	765.2088623046875	84.81629943847656	-1350.489990234375	1649.33251953125	-129.9719085693359	-1164.68115234375	1670.082641601562	-220.6134490966797	-1217.998413085938	1674.085815429688	-100.5805511474609	-1293.89794921875	1647.314453125	-299.0322875976562	-1184.256958007812	861.9166259765625	-365.5653686523438	-1431.51904296875	861.5220947265625	-52.15120315551758	-1305.987426757812	900.3421630859375	-37.72140121459961	-1147.202026367188	896.8475952148438	-242.9004669189453	-1215.500244140625	444.8686218261719	-354.9475708007812	-1176.517333984375	594.6644287109375	-349.9532470703125	-1281.980834960938	42.86746215820312	-402.7720947265625	-1216.816284179688	301.0110473632812	-376.3623962402344	-1126.68017578125	44.95001983642578	-214.6433563232422	-1207.326293945312	49.80488204956055	-234.0216522216797	-1145.332397460938	48.27610397338867	-328.861083984375	-1354.482299804688	47.77298355102539	-372.234375	-1411.81298828125	468.230712890625	-72.34140014648438	-1403.688720703125	726.4413452148438	-22.34123992919922	-1467.231689453125	39.74031448364258	-108.9454193115234	-1422.337280273438	327.7156982421875	-67.82677459716797	-1257.923828125	47.64808654785156	-31.51229476928711	-1293.77880859375	56.1835823059082	-94.08210754394531	-1369.50048828125	47.00401306152344	-15.32386684417725	-1494.549072265625	33.37373733520508	-183.7281494140625	-1074.216064453125	797.5199584960938	-341.5959777832031	
72	0.71	-1443.729125976562	966.5753173828125	-229.10107421875	-1360.621704101562	962.7496948242188	-342.95556640625	-1401.190307617188	1052.992431640625	-268.9974365234375	-1179.418090820312	1256.95654296875	-136.3704528808594	-1419.306396484375	1177.16650390625	-286.520263671875	-1377.35693359375	1448.152709960938	-246.3817291259766	-1210.843872070312	1368.294189453125	-160.9948883056641	-1477.759643554688	1327.272094726562	-194.6786041259766	-1350.304565429688	1398.397094726562	-348.6067504882812	-1221.485107421875	1421.132690429688	-361.7026062011719	-1169.550537109375	1300.080322265625	-444.0456237792969	-1128.200317382812	1081.642944335938	-445.088623046875	-1232.101440429688	1067.415405273438	-443.310546875	-1094.3017578125	883.0013427734375	-348.2701721191406	-1091.667602539062	866.0906372070312	-420.4390563964844	-1104.656005859375	994.4646606445312	-434.3011779785156	-1085.408081054688	720.1663818359375	-347.8349914550781	-1082.169799804688	789.23193359375	-412.9176330566406	-1399.164916992188	1418.593872070312	-72.04777526855469	-1449.696166992188	1357.229248046875	-12.62512683868408	-1456.770874023438	1068.686767578125	45.66375350952148	-1482.432250976562	1049.142456054688	-14.18376445770264	-1333.003540039062	870.3074340820312	56.95875549316406	-1417.110595703125	851.6174926757812	78.52981567382812	-1454.5029296875	1010.600036621094	57.69347381591797	-1325.563232421875	714.1044921875	70.65647125244141	-1319.058349609375	773.9923095703125	76.9912109375	-1395.725219726562	765.0870971679688	84.89470672607422	-1350.393920898438	1649.31298828125	-129.7259979248047	-1164.496948242188	1670.070068359375	-220.3487396240234	-1217.735595703125	1674.044921875	-100.3106460571289	-1293.779052734375	1647.30224609375	-298.7258605957031	-1184.197265625	861.9085083007812	-365.5022888183594	-1431.404174804688	861.51953125	-51.98459625244141	-1305.864135742188	900.2999877929688	-37.57466125488281	-1147.141723632812	896.8274536132812	-242.7835540771484	-1215.48486328125	444.8711547851562	-354.9126281738281	-1176.473266601562	594.6465454101562	-349.8818969726562	-1281.99072265625	42.86901092529297	-402.7656860351562	-1216.776977539062	301.0347900390625	-376.3319091796875	-1126.676879882812	44.94693374633789	-214.6399993896484	-1207.319702148438	49.80734634399414	-234.0304718017578	-1145.331298828125	48.27296829223633	-328.8739318847656	-1354.475952148438	47.76058197021484	-372.208984375	-1411.768188476562	468.2224731445312	-72.27841186523438	-1403.576416015625	726.4297485351562	-22.22466278076172	-1467.234741210938	39.74133682250977	-108.9531936645508	-1422.322875976562	327.7152709960938	-67.767822265625	-1257.921020507812	47.64699554443359	-31.5162353515625	-1293.780151367188	56.18368911743164	-94.08233642578125	-1369.501098632812	47.00354385375977	-15.32267379760742	-1494.55126953125	33.37546539306641	-183.7253875732422	-1074.175537109375	797.5505981445312	-341.3899841308594	
73	0.72	-1443.641357421875	966.603515625	-228.8946075439453	-1360.625610351562	962.8409423828125	-342.8632507324219	-1401.115234375	1053.006591796875	-268.8182067871094	-1179.270874023438	1256.918334960938	-136.1796417236328	-1419.201904296875	1177.192993164062	-286.2663879394531	-1377.184204101562	1448.166015625	-246.1138305664062	-1210.668579101562	1368.2724609375	-160.8180999755859	-1477.6298828125	1327.283081054688	-194.3623657226562	-1350.130737304688	1398.433471679688	-348.3155822753906	-1221.425659179688	1421.143920898438	-361.4925537109375	-1169.490966796875	1300.0927734375	-443.8427124023438	-1128.177734375	1081.622314453125	-444.9191284179688	-1232.15478515625	1067.44482421875	-443.0523071289062	-1094.397583007812	882.9456176757812	-348.1230163574219	-1091.71630859375	866.0828857421875	-420.1912536621094	-1104.761840820312	994.4276123046875	-434.1139831542969	-1085.614013671875	720.0687866210938	-347.6377258300781	-1082.292602539062	789.190185546875	-412.6588745117188	-1398.961791992188	1418.547607421875	-71.76352691650391	-1449.484741210938	1357.167602539062	-12.37760639190674	-1456.585083007812	1068.620849609375	45.82729721069336	-1482.288330078125	1049.086181640625	-13.99275016784668	-1332.882446289062	870.1649780273438	57.01119613647461	-1417.001953125	851.5161743164062	78.62412261962891	-1454.32275390625	1010.518676757812	57.82820129394531	-1325.507934570312	713.9641723632812	70.663818359375	-1318.96337890625	773.8456420898438	76.97743225097656	-1395.650634765625	764.96630859375	84.96544647216797	-1350.26904296875	1649.27294921875	-129.4690704345703	-1164.307983398438	1670.049194335938	-220.0619812011719	-1217.467651367188	1673.9970703125	-100.0393447875977	-1293.657958984375	1647.27734375	-298.4183044433594	-1184.125732421875	861.901123046875	-365.4252319335938	-1431.293212890625	861.5167236328125	-51.80797958374023	-1305.744750976562	900.2564697265625	-37.41977691650391	-1147.114379882812	896.800537109375	-242.6767425537109	-1215.4638671875	444.8737487792969	-354.8692016601562	-1176.432495117188	594.62744140625	-349.7850341796875	-1282.00048828125	42.87012100219727	-402.7575988769531	-1216.739135742188	301.0528564453125	-376.3026733398438	-1126.675048828125	44.94226837158203	-214.6349334716797	-1207.313720703125	49.80992889404297	-234.0359039306641	-1145.329345703125	48.26869583129883	-328.8907165527344	-1354.459350585938	47.74152374267578	-372.1774597167969	-1411.72021484375	468.2101440429688	-72.21652984619141	-1403.46142578125	726.4238891601562	-22.11185455322266	-1467.237182617188	39.74205780029297	-108.9606246948242	-1422.302124023438	327.7099914550781	-67.71121215820312	-1257.918334960938	47.64432144165039	-31.51983261108398	-1293.782470703125	56.18363571166992	-94.08349609375	-1369.501831054688	47.00327682495117	-15.32088184356689	-1494.55322265625	33.37699890136719	-183.7240142822266	-1074.122802734375	797.5917358398438	-341.1704711914062	
74	0.73	-1443.550415039062	966.6299438476562	-228.6965026855469	-1360.623291015625	962.91552734375	-342.7806091308594	-1401.036743164062	1053.020263671875	-268.6454467773438	-1179.130615234375	1256.876708984375	-135.9724731445312	-1419.102416992188	1177.215576171875	-286.0128173828125	-1377.019653320312	1448.1748046875	-245.8445892333984	-1210.494873046875	1368.250732421875	-160.6359405517578	-1477.50146484375	1327.288696289062	-194.0470581054688	-1349.962158203125	1398.46923828125	-348.0020751953125	-1221.34912109375	1421.14892578125	-361.2828063964844	-1169.43115234375	1300.103271484375	-443.6387939453125	-1128.141967773438	1081.600952148438	-444.7394714355469	-1232.17333984375	1067.453979492188	-442.7648315429688	-1094.483520507812	882.8986206054688	-347.9715270996094	-1091.765747070312	866.07861328125	-419.9568786621094	-1104.859619140625	994.3902587890625	-433.9399719238281	-1085.791625976562	719.9899291992188	-347.4354553222656	-1082.38427734375	789.16015625	-412.3907470703125	-1398.763549804688	1418.50390625	-71.46083831787109	-1449.267211914062	1357.1025390625	-12.12912654876709	-1456.401000976562	1068.55029296875	45.99563217163086	-1482.136962890625	1049.027709960938	-13.80526161193848	-1332.753662109375	870.0191040039062	57.06347274780273	-1416.884155273438	851.4141235351562	78.70888519287109	-1454.1416015625	1010.437194824219	57.96188735961914	-1325.447265625	713.8302001953125	70.67762756347656	-1318.853637695312	773.7045288085938	76.94875335693359	-1395.559814453125	764.8495483398438	85.02785491943359	-1350.109497070312	1649.215209960938	-129.1962280273438	-1164.121337890625	1670.021606445312	-219.7578582763672	-1217.21044921875	1673.945068359375	-99.76753234863281	-1293.539428710938	1647.247924804688	-298.1118469238281	-1184.04443359375	861.89453125	-365.3379211425781	-1431.183471679688	861.5119018554688	-51.62725830078125	-1305.631958007812	900.2130126953125	-37.2562141418457	-1147.1015625	896.768310546875	-242.5756378173828	-1215.434692382812	444.8777770996094	-354.8161926269531	-1176.396606445312	594.6061401367188	-349.6661987304688	-1282.009765625	42.87085342407227	-402.7481079101562	-1216.703735351562	301.0652465820312	-376.2745971679688	-1126.674560546875	44.93595123291016	-214.62744140625	-1207.307983398438	49.81105804443359	-234.036865234375	-1145.326416015625	48.26399230957031	-328.9061584472656	-1354.435302734375	47.72037506103516	-372.1433715820312	-1411.668212890625	468.1939392089844	-72.15529632568359	-1403.343994140625	726.4214477539062	-22.005126953125	-1467.239013671875	39.74282073974609	-108.9673767089844	-1422.274169921875	327.7008666992188	-67.656005859375	-1257.915771484375	47.64048767089844	-31.5227222442627	-1293.78515625	56.18345642089844	-94.085205078125	-1369.502807617188	47.00326156616211	-15.31856060028076	-1494.555297851562	33.37893295288086	-183.7234344482422	-1074.07177734375	797.6334228515625	-340.9325866699219	
